<svg width="190" height="62" viewBox="0 0 190 62" fill="none" xmlns="http://www.w3.org/2000/svg">
<circle cx="30.6213" cy="30.6213" r="30.6213" fill="#217C2C"/>
<path d="M39.1937 42.3332C40.0561 42.3332 40.7552 41.6342 40.7552 40.7718C40.7552 39.9095 40.0561 39.2104 39.1937 39.2104C38.3314 39.2104 37.6323 39.9095 37.6323 40.7718C37.6323 41.6342 38.3314 42.3332 39.1937 42.3332Z" fill="#FCEC01"/>
<path d="M47.5376 37.3329L47.3791 36.9636C46.4876 34.889 44.9572 33.3016 43.0766 32.3864L41.9212 23.5254H42.0605C42.4766 23.5254 42.9734 23.3568 42.9734 22.5538V21.4435C42.9734 20.6405 42.4766 20.4719 42.0605 20.4719H28.6285C28.2117 20.4719 27.7149 20.6405 27.7149 21.4435V22.5538C27.7149 23.3568 28.2117 23.5254 28.6285 23.5254H28.664L27.8954 29.4187L16.1833 31.1927L16.0823 31.3117C15.6786 31.7887 15.0324 33.2616 14.7442 33.9439V28.8869H13.7038V36.6946H14.7442V36.2164C14.8322 36.2164 14.9179 36.226 15.0019 36.2395L14.9918 37.7587C14.9822 37.766 14.972 37.7705 14.9624 37.7773H13.7038V39.4075H15.2224C14.744 39.8451 14.3619 40.3774 14.1004 40.9707C13.839 41.5639 13.7039 42.2052 13.7038 42.8535C13.7038 45.4423 15.8004 47.5389 18.3858 47.5389C20.9008 47.5389 22.9483 45.5529 23.0572 43.061H24.4145C24.4201 42.9561 24.4195 42.8535 24.4201 42.7503H32.7263C33.5721 45.5218 36.1475 47.5389 39.1936 47.5389C42.9277 47.5389 45.9559 44.5091 45.9559 40.7721C45.9559 39.8992 45.785 39.0686 45.4844 38.3017L47.5376 37.3329ZM15.0081 35.1946C14.9207 35.1856 14.8339 35.1749 14.7442 35.1749V34.8495H15.0104L15.0081 35.1946V35.1946ZM28.6285 22.6925C28.6043 22.6928 28.5802 22.6915 28.5563 22.6885C28.5489 22.644 28.5457 22.5989 28.5467 22.5538V21.4435C28.5467 21.3769 28.5512 21.3341 28.5563 21.3087C28.5802 21.3058 28.6043 21.3045 28.6285 21.3047H42.0605C42.0844 21.3045 42.1083 21.3058 42.1321 21.3087C42.1366 21.3341 42.1417 21.3769 42.1417 21.4435V22.5538C42.1417 22.6203 42.1366 22.6632 42.1321 22.6885C42.1083 22.6915 42.0844 22.6928 42.0605 22.6925H28.6285ZM36.8399 30.6914C35.4116 32.7338 32.7235 30.9135 32.7235 33.4849H28.7892L29.8296 23.5953H30.491V24.6097C30.3579 24.6962 30.2486 24.8145 30.1728 24.9539C30.0971 25.0934 30.0574 25.2495 30.0574 25.4082V28.9219C30.0574 29.1746 30.1578 29.417 30.3365 29.5957C30.5152 29.7744 30.7576 29.8748 31.0104 29.8748C31.2631 29.8748 31.5055 29.7744 31.6842 29.5957C31.8629 29.417 31.9633 29.1746 31.9633 28.9219V25.4082C31.9635 25.283 31.939 25.159 31.8912 25.0433C31.8434 24.9276 31.7733 24.8224 31.6848 24.7338C31.5964 24.6452 31.4913 24.5749 31.3757 24.5269C31.2601 24.4789 31.1361 24.4542 31.0109 24.4541V23.5953H40.7534L41.6201 31.8372C40.8398 31.6183 40.0333 31.5071 39.2229 31.5068L39.1925 31.5079V26.6291C36.3155 26.6285 37.9203 29.1407 36.8399 30.6914V30.6914ZM16.6304 31.9669L27.8525 30.2673V34.0161H15.6182C15.943 33.2644 16.3654 32.3611 16.6304 31.9669V31.9669ZM15.8314 36.6687C15.9611 36.7951 16.0681 36.9429 16.1477 37.1057C16.0395 37.1519 15.934 37.2111 15.8274 37.2641L15.8314 36.6687ZM18.3858 45.4564C18.0442 45.4564 17.7059 45.389 17.3903 45.2581C17.0747 45.1273 16.7879 44.9356 16.5464 44.6939C16.3049 44.4523 16.1134 44.1654 15.9828 43.8497C15.8522 43.534 15.785 43.1957 15.7852 42.854C15.7801 42.5093 15.8436 42.1669 15.972 41.8469C16.1005 41.5269 16.2912 41.2356 16.5333 40.99C16.7753 40.7444 17.0637 40.5493 17.3818 40.4162C17.6999 40.2831 18.0413 40.2145 18.3861 40.2145C18.7309 40.2145 19.0723 40.2831 19.3904 40.4162C19.7085 40.5493 19.997 40.7444 20.239 40.99C20.481 41.2356 20.6718 41.5269 20.8002 41.8469C20.9286 42.1669 20.9922 42.5093 20.9871 42.854C20.9869 43.544 20.7129 44.2057 20.2251 44.6936C19.7373 45.1816 19.0758 45.456 18.3858 45.4564V45.4564ZM32.5351 41.9168H24.3716C24.1241 39.9054 22.9404 38.2143 21.0999 37.3059C19.8204 36.6749 18.4479 36.4984 17.1475 36.7854C16.8975 36.1826 16.4308 35.6953 15.8393 35.4196L15.8399 35.3046H27.098L29.5296 38.8442H32.7133C32.5267 39.4696 32.4317 40.1189 32.4314 40.7716C32.4314 41.1629 32.4714 41.5441 32.5351 41.9168ZM39.1936 44.4155C38.2278 44.4152 37.3017 44.0313 36.6189 43.3483C35.9361 42.6653 35.5525 41.739 35.5525 40.7733C35.5522 40.2948 35.6462 39.821 35.829 39.3789C36.0118 38.9368 36.28 38.5351 36.6181 38.1966C36.9562 37.8581 37.3577 37.5895 37.7996 37.4062C38.2415 37.2229 38.7152 37.1285 39.1936 37.1282C40.1521 37.1402 41.0673 37.5293 41.7409 38.2113C42.4145 38.8933 42.7922 39.8133 42.7922 40.7719C42.7922 41.7304 42.4145 42.6504 41.7409 43.3324C41.0673 44.0144 40.1521 44.4035 39.1936 44.4155V44.4155ZM39.2241 33.7105C36.6989 33.7105 34.396 35.1884 33.1221 37.5974L31.925 36.9455C33.262 34.0539 35.9642 32.3402 39.2241 32.3402C42.387 32.3402 45.0598 34.0465 46.4481 36.9275L45.2679 37.4846C43.9811 35.145 41.6996 33.7105 39.2241 33.7105" fill="#FCEC01"/>
<path d="M18.3858 43.8946C18.9607 43.8946 19.4268 43.4286 19.4268 42.8537C19.4268 42.2788 18.9607 41.8127 18.3858 41.8127C17.8109 41.8127 17.3449 42.2788 17.3449 42.8537C17.3449 43.4286 17.8109 43.8946 18.3858 43.8946Z" fill="#FCEC01"/>
<path d="M77.8842 33.0832H71.074V33.0832C70.3996 35.0333 68.5631 36.3413 66.4997 36.3413H66.3461L72.4949 19.2179H76.4879L82.6366 36.3413H82.4585C80.3952 36.3413 78.5586 35.0333 77.8842 33.0832V33.0832ZM76.9533 30.3396L74.4791 23.1864L72.0049 30.3396H76.9533Z" fill="#217C2C"/>
<path d="M89.9813 22.5495C90.9939 22.5495 91.8839 22.7537 92.6515 23.1619C93.4191 23.5539 94.0233 24.0683 94.4643 24.7052V22.77H97.9184V36.4393C97.9184 37.6968 97.6652 38.8155 97.159 39.7954C96.6527 40.7916 95.8933 41.5755 94.8807 42.1471C93.8682 42.7351 92.6433 43.029 91.2062 43.029C89.2791 43.029 87.6949 42.5799 86.4538 41.6817C85.2289 40.7835 84.5348 39.5586 84.3715 38.0071H85.8638C86.9968 38.0071 87.9611 38.8861 88.928 39.477V39.477C89.5322 39.8526 90.259 40.0404 91.1082 40.0404C92.1044 40.0404 92.9128 39.7383 93.5334 39.134C94.154 38.5461 94.4643 37.6478 94.4643 36.4393V34.3326C94.0233 34.9695 93.4109 35.5003 92.627 35.9249C91.8594 36.3495 90.9775 36.5618 89.9813 36.5618C88.8381 36.5618 87.7929 36.2678 86.8457 35.6799C85.8985 35.092 85.1472 34.2673 84.592 33.2057C84.053 32.1278 83.7836 30.8948 83.7836 29.5067C83.7836 28.1348 84.053 26.9181 84.592 25.8566C85.1472 24.7951 85.8903 23.9785 86.8212 23.4069C87.7684 22.8353 88.8218 22.5495 89.9813 22.5495ZM94.4643 29.5557C94.4643 28.7228 94.301 28.0123 93.9743 27.4244C93.6477 26.8202 93.2068 26.3629 92.6515 26.0526C92.0962 25.726 91.5001 25.5626 90.8632 25.5626C90.2263 25.5626 89.6384 25.7178 89.0994 26.0281C88.5605 26.3384 88.1196 26.7957 87.7766 27.3999C87.45 27.9878 87.2867 28.6901 87.2867 29.5067C87.2867 30.3232 87.45 31.0418 87.7766 31.6624C88.1196 32.2667 88.5605 32.7321 89.0994 33.0587C89.6547 33.3854 90.2426 33.5487 90.8632 33.5487C91.5001 33.5487 92.0962 33.3935 92.6515 33.0832C93.2068 32.7566 93.6477 32.2993 93.9743 31.7114C94.301 31.1071 94.4643 30.3886 94.4643 29.5557Z" fill="#217C2C"/>
<path d="M104.428 24.8767C104.869 24.1581 105.441 23.5947 106.143 23.1864C106.861 22.7781 107.678 22.574 108.593 22.574V25.2687C108.593 25.7693 108.187 26.1751 107.686 26.1751V26.1751C106.608 26.1751 105.792 26.4282 105.236 26.9345C104.698 27.4407 104.428 28.3226 104.428 29.5802V32.9118C104.428 34.8059 102.893 36.3413 100.998 36.3413V36.3413V22.77H104.428V24.8767Z" fill="#217C2C"/>
<path d="M116.659 36.5618C115.353 36.5618 114.177 36.276 113.132 35.7044C112.087 35.1165 111.262 34.2917 110.658 33.2302C110.07 32.1687 109.776 30.9438 109.776 29.5557C109.776 28.1675 110.078 26.9426 110.682 25.8811C111.303 24.8196 112.144 24.003 113.205 23.4314C114.267 22.8435 115.451 22.5495 116.757 22.5495C118.064 22.5495 119.248 22.8435 120.309 23.4314C121.371 24.003 122.204 24.8196 122.808 25.8811C123.429 26.9426 123.739 28.1675 123.739 29.5557C123.739 30.9438 123.421 32.1687 122.784 33.2302C122.163 34.2917 121.314 35.1165 120.236 35.7044C119.174 36.276 117.982 36.5618 116.659 36.5618ZM116.659 33.5732C117.28 33.5732 117.86 33.4262 118.399 33.1322C118.954 32.8219 119.395 32.3646 119.721 31.7604C120.048 31.1561 120.211 30.4212 120.211 29.5557C120.211 28.2655 119.868 27.2774 119.183 26.5915C118.513 25.8893 117.688 25.5381 116.708 25.5381C115.728 25.5381 114.904 25.8893 114.234 26.5915C113.581 27.2774 113.254 28.2655 113.254 29.5557C113.254 30.8458 113.573 31.842 114.21 32.5443C114.863 33.2302 115.679 33.5732 116.659 33.5732Z" fill="#217C2C"/>
<path d="M144.627 19.2424V36.3413V36.3413C142.733 36.3413 141.198 34.8059 141.198 32.9117V25.2197L137.112 35.1396C136.812 35.8668 136.104 36.3413 135.317 36.3413V36.3413C134.532 36.3413 133.824 35.8684 133.524 35.143L129.415 25.2197V32.9118C129.415 34.8059 127.879 36.3413 125.985 36.3413V36.3413V19.2424V19.2424C128.348 19.2424 130.483 20.6513 131.412 22.8236L135.319 31.9564L139.235 22.801C140.158 20.6424 142.28 19.2424 144.627 19.2424V19.2424Z" fill="#217C2C"/>
<path d="M160.365 29.2617C160.365 29.7516 160.332 30.1926 160.267 30.5845H150.345C150.427 31.5644 150.77 32.332 151.374 32.8873C151.979 33.4425 152.722 33.7202 153.604 33.7202V33.7202C155.667 33.7202 157.63 32.0789 159.693 32.0789H160.022C159.63 33.3854 158.879 34.4632 157.768 35.3125C156.658 36.1454 155.294 36.5618 153.677 36.5618C152.371 36.5618 151.195 36.276 150.149 35.7044C149.121 35.1165 148.312 34.2917 147.724 33.2302C147.153 32.1687 146.867 30.9438 146.867 29.5557C146.867 28.1512 147.153 26.9181 147.724 25.8566C148.296 24.7951 149.096 23.9785 150.125 23.4069C151.154 22.8353 152.338 22.5495 153.677 22.5495C154.967 22.5495 156.119 22.8271 157.131 23.3824C158.16 23.9377 158.952 24.7297 159.507 25.7586C160.079 26.7712 160.365 27.9389 160.365 29.2617ZM156.813 28.2818C156.796 27.3999 156.478 26.6977 155.857 26.1751C155.237 25.6361 154.477 25.3667 153.579 25.3667C152.73 25.3667 152.011 25.628 151.423 26.1506C150.852 26.6568 150.501 27.3673 150.37 28.2818H156.813Z" fill="#217C2C"/>
<path d="M161.717 29.5557C161.717 28.1512 162.002 26.9263 162.574 25.8811C163.146 24.8196 163.938 24.003 164.95 23.4314C165.963 22.8435 167.122 22.5495 168.429 22.5495C170.111 22.5495 171.499 22.9741 172.593 23.8234C173.704 24.6563 174.447 25.8321 174.823 27.3509H172.973H172.855C171.821 27.3509 170.97 26.5661 170.119 25.9791V25.9791C169.662 25.6361 169.09 25.4647 168.404 25.4647C167.424 25.4647 166.649 25.8239 166.077 26.5425C165.506 27.2448 165.22 28.2491 165.22 29.5557C165.22 30.8458 165.506 31.8502 166.077 32.5688C166.649 33.271 167.424 33.6222 168.404 33.6222V33.6222C170.532 33.6222 172.553 31.7604 174.681 31.7604H174.823C174.447 33.2302 173.704 34.3979 172.593 35.2635C171.483 36.129 170.095 36.5618 168.429 36.5618C167.122 36.5618 165.963 36.276 164.95 35.7044C163.938 35.1165 163.146 34.2999 162.574 33.2547C162.002 32.1932 161.717 30.9602 161.717 29.5557Z" fill="#217C2C"/>
<path d="M184.709 22.574C185.738 22.574 186.652 22.8026 187.452 23.2599C188.253 23.7009 188.873 24.3623 189.314 25.2442C189.771 26.1097 190 27.1549 190 28.3798V36.3413V36.3413C188.106 36.3413 186.57 34.8059 186.57 32.9118V28.8452C186.57 27.7674 186.301 26.9426 185.762 26.371C185.223 25.7831 184.488 25.4892 183.557 25.4892C182.61 25.4892 181.859 25.7831 181.304 26.371C180.765 26.9426 180.495 27.7674 180.495 28.8452V32.9117C180.495 34.8059 178.96 36.3413 177.066 36.3413V36.3413V18.2135V18.2135C178.96 18.2135 180.495 19.749 180.495 21.6431V24.4603C180.936 23.8723 181.524 23.4151 182.259 23.0884C182.994 22.7455 183.81 22.574 184.709 22.574Z" fill="#217C2C"/>
</svg>
